<?xml version="1.0" encoding="utf-8"?>
<!-- Generator: Adobe Illustrator 27.9.0, SVG Export Plug-In . SVG Version: 6.00 Build 0)  -->
<svg version="1.1" id="Layer_1" xmlns="http://www.w3.org/2000/svg" xmlns:xlink="http://www.w3.org/1999/xlink" x="0px" y="0px"
	 viewBox="0 0 685 440" style="enable-background:new 0 0 685 440;" xml:space="preserve">
<style type="text/css">
	.st0{fill-rule:evenodd;clip-rule:evenodd;fill:#FFFFFF;}
</style>
<path class="st0" d="M0.1,210l137.2,34.7l-11.1,44.1l73.3,18.5l11.1-44.1l27.9,7c38.2,78.7,102.8,107.1,172.2,77.7
	c10.9-4.6,20.7-10.1,29.4-16.5l-1,55.4l32,52.3l120.7-73.8l23.7,38.8l64.5-39.4l-23.7-38.8l28.6-17.5l-32-52.3l-28.6,17.5l-96.1-157
	l-60.6,37.1C429.9,68.1,364,38.7,292.2,69.2c-14.9,6.4-27.8,14.3-38.5,23.7l17.1-67.7L173.8,0.7L15.2,150.5L0.1,210z M467.5,153.6
	l-24.7,15.1L440,331.4c49.1-36.1,60.9-99,29-174.4C468.5,155.9,468,154.7,467.5,153.6z M253.6,92.9l-28,110.8l32.5,8.2l-15,59.5
	l-4.6-1.2c-2-4.1-3.9-8.3-5.7-12.7C203,187.2,212,129.3,253.6,92.9z M154,185.6l-63.3-16l0.6-2.2l85.7-81.5l2.2,0.6L154,185.6z
	 M561.2,312.1l-55.7,34.1l-1.2-1.9l1.6-118.2l1.9-1.2L561.2,312.1z M308,225.5c23.7,56.5,52.5,74,77.6,63.3
	c25.1-10.7,32.3-43.5,8.2-99.8c-23.5-55-51.6-71.9-76.7-61.2C292,138.5,284.8,170.4,308,225.5z"/>
</svg>
