<?xml version="1.0" encoding="utf-8"?>
<!-- Generator: Adobe Illustrator 27.8.1, SVG Export Plug-In . SVG Version: 6.00 Build 0)  -->
<svg version="1.1" id="Layer_1" xmlns="http://www.w3.org/2000/svg" xmlns:xlink="http://www.w3.org/1999/xlink" x="0px" y="0px"
	 viewBox="0 0 138.42 105.69" style="enable-background:new 0 0 138.42 105.69;" xml:space="preserve">
<style type="text/css">
	.st0{fill:#FFFFFF;}
	.st1{font-family:'ArialMT';}
	.st2{font-size:19.4085px;}
</style>
<path class="st0" d="M40.09,0h14.27l14.18,34.6L82.71,0h13.37L74.1,49.44l-11.44-0.28L40.09,0z"/>
<path class="st0" d="M7.01,79L6.96,63.04l-6.83-0.06L0,58.85l19.18-0.14v4.24l-6.78,0.12v15.95C12.4,79,7.01,79,7.01,79z"/>
<path class="st0" d="M28.96,78.82l0.3-20.14l5.18,0.13l0.1,7.62h8.32v-7.62h6.24v20.18h-6.24l-0.22-7.94l-8.22,0.04l0.15,7.89
	L28.96,78.82L28.96,78.82z"/>
<path class="st0" d="M60.38,79V58.81h10.38c2.61,0,4.5,0.18,5.69,0.54c1.17,0.36,2.11,1,2.83,1.94c0.72,0.92,1.06,1.98,1.06,3.17
	c0,1.51-0.09,2.75-0.58,4.05s-1.78,2.39-3.92,2.65c1.07,0.51,0,0,0.71,0.6c0.71,0.61,1.62,1.71,2.82,3.28l2.97,3.93h-7.38l-2.35-4.2
	c-1.26-1.57-1.38-1.68-1.83-2.11c-0.47-0.4-1.26-0.1-1.78-0.27c-0.51-0.15-1.31,0.06-2.43,0.06l-0.36,0.14v6.38L60.38,79L60.38,79z
	 M66.18,67.4l2.78-0.01c2.35,0,3.82-0.09,4.44-0.25c0.58-0.15,1.07-0.45,1.38-0.86c0.32-0.4,0.42-1.09,0.11-1.63
	c-0.29-0.47-0.23-0.9-0.66-1.34c0,0-0.85-0.23-1.14-0.28c-0.47-0.09-0.98,0.09-2.93,0.06h-3.98L66.18,67.4L66.18,67.4z"/>
<polygon class="st0" points="99.98,62.98 99.98,63.04 109.35,63.17 109.35,58.81 91.12,58.81 91.12,62.98 "/>
<polygon class="st0" points="98.69,75.04 98.69,75.28 91.12,75.28 91.12,79 109.51,79 109.67,75.04 "/>
<polygon class="st0" points="108.79,66.72 99.98,66.72 99.98,66.92 91.12,66.92 91.12,71.13 96.17,71.13 96.17,71.06 108.67,71.26 
	"/>
<polygon class="st0" points="128.73,62.91 128.73,62.98 138.1,63.09 138.1,58.75 119.88,58.75 119.88,62.91 "/>
<polygon class="st0" points="127.44,74.97 127.44,75.22 119.88,75.22 119.88,78.93 138.27,78.93 138.42,74.97 "/>
<polygon class="st0" points="137.55,66.65 128.73,66.65 128.73,66.86 119.88,66.86 119.88,71.06 124.95,71.06 124.95,70.99 
	137.46,71.19 "/>
<text transform="matrix(1.2717 0 0 1 0.2302 99.3837)" class="st0 st1 st2">E N E R G</text>
<text transform="matrix(1.2717 0 0 1 115.4334 99.3837)" class="st0 st1 st2"> Y</text>
</svg>
